# Blender v2.76 (sub 0) OBJ File: '40kmhsign.blend'
# www.blender.org
mtllib 40sign.mtl
o Circle.013
v 0.000000 0.000000 0.000000
v -0.000000 0.300000 -0.000000
v -0.000000 0.294236 -0.058527
v -0.000000 0.277164 -0.114805
v -0.000000 0.249441 -0.166671
v 0.000000 0.212132 -0.212132
v 0.000000 0.166671 -0.249441
v 0.000000 0.114805 -0.277164
v 0.000000 0.058527 -0.294236
v 0.000000 0.000000 -0.300000
v 0.000000 -0.058527 -0.294236
v 0.000000 -0.114805 -0.277164
v 0.000000 -0.166671 -0.249441
v 0.000000 -0.212132 -0.212132
v 0.000000 -0.249441 -0.166671
v 0.000000 -0.277164 -0.114805
v 0.000000 -0.294236 -0.058527
v 0.000000 -0.300000 0.000000
v 0.000000 -0.294236 0.058527
v 0.000000 -0.277164 0.114805
v 0.000000 -0.249441 0.166671
v -0.000000 -0.212132 0.212132
v -0.000000 -0.166671 0.249441
v -0.000000 -0.114805 0.277164
v -0.000000 -0.058527 0.294236
v -0.000000 0.000000 0.300000
v -0.000000 0.058527 0.294236
v -0.000000 0.114805 0.277164
v -0.000000 0.166671 0.249441
v -0.000000 0.212132 0.212132
v -0.000000 0.249441 0.166671
v -0.000000 0.277164 0.114805
v -0.000000 0.294236 0.058527
vn -1.000000 -0.000000 -0.000000
usemtl Material.002
s off
f 1//1 2//1 3//1
f 1//1 3//1 4//1
f 1//1 4//1 5//1
f 1//1 5//1 6//1
f 1//1 6//1 7//1
f 1//1 7//1 8//1
f 1//1 8//1 9//1
f 1//1 9//1 10//1
f 1//1 10//1 11//1
f 1//1 11//1 12//1
f 1//1 12//1 13//1
f 1//1 13//1 14//1
f 1//1 14//1 15//1
f 1//1 15//1 16//1
f 1//1 16//1 17//1
f 1//1 17//1 18//1
f 1//1 18//1 19//1
f 1//1 19//1 20//1
f 1//1 20//1 21//1
f 1//1 21//1 22//1
f 1//1 22//1 23//1
f 1//1 23//1 24//1
f 1//1 24//1 25//1
f 1//1 25//1 26//1
f 1//1 26//1 27//1
f 1//1 27//1 28//1
f 1//1 28//1 29//1
f 1//1 29//1 30//1
f 1//1 30//1 31//1
f 1//1 31//1 32//1
f 1//1 32//1 33//1
f 1//1 33//1 2//1
o Circle.012
v -0.002000 -0.000000 -0.000000
v -0.002000 0.290000 -0.000000
v -0.002000 0.284428 -0.056576
v -0.002000 0.267925 -0.110978
v -0.002000 0.241126 -0.161115
v -0.002000 0.205061 -0.205061
v -0.002000 0.161115 -0.241126
v -0.002000 0.110978 -0.267925
v -0.002000 0.056576 -0.284428
v -0.002000 0.000000 -0.290000
v -0.002000 -0.056576 -0.284428
v -0.002000 -0.110978 -0.267925
v -0.002000 -0.161115 -0.241126
v -0.002000 -0.205061 -0.205061
v -0.002000 -0.241126 -0.161115
v -0.002000 -0.267925 -0.110978
v -0.002000 -0.284428 -0.056576
v -0.002000 -0.290000 0.000000
v -0.002000 -0.284428 0.056576
v -0.002000 -0.267925 0.110978
v -0.002000 -0.241126 0.161116
v -0.002000 -0.205061 0.205061
v -0.002000 -0.161115 0.241126
v -0.002000 -0.110978 0.267925
v -0.002000 -0.056576 0.284428
v -0.002000 0.000000 0.290000
v -0.002000 0.056576 0.284428
v -0.002000 0.110978 0.267925
v -0.002000 0.161116 0.241126
v -0.002000 0.205061 0.205061
v -0.002000 0.241126 0.161115
v -0.002000 0.267925 0.110978
v -0.002000 0.284428 0.056576
vn -1.000000 -0.000000 -0.000000
usemtl Material.003
s off
f 34//2 35//2 36//2
f 34//2 36//2 37//2
f 34//2 37//2 38//2
f 34//2 38//2 39//2
f 34//2 39//2 40//2
f 34//2 40//2 41//2
f 34//2 41//2 42//2
f 34//2 42//2 43//2
f 34//2 43//2 44//2
f 34//2 44//2 45//2
f 34//2 45//2 46//2
f 34//2 46//2 47//2
f 34//2 47//2 48//2
f 34//2 48//2 49//2
f 34//2 49//2 50//2
f 34//2 50//2 51//2
f 34//2 51//2 52//2
f 34//2 52//2 53//2
f 34//2 53//2 54//2
f 34//2 54//2 55//2
f 34//2 55//2 56//2
f 34//2 56//2 57//2
f 34//2 57//2 58//2
f 34//2 58//2 59//2
f 34//2 59//2 60//2
f 34//2 60//2 61//2
f 34//2 61//2 62//2
f 34//2 62//2 63//2
f 34//2 63//2 64//2
f 34//2 64//2 65//2
f 34//2 65//2 66//2
f 34//2 66//2 35//2
o Circle.011
v -0.004000 -0.000000 -0.000000
v -0.004000 0.220000 -0.000000
v -0.004000 0.215773 -0.042920
v -0.004000 0.203253 -0.084190
v -0.004000 0.182923 -0.122225
v -0.004000 0.155563 -0.155563
v -0.004000 0.122225 -0.182923
v -0.004000 0.084190 -0.203253
v -0.004000 0.042920 -0.215773
v -0.004000 0.000000 -0.220000
v -0.004000 -0.042920 -0.215773
v -0.004000 -0.084190 -0.203253
v -0.004000 -0.122225 -0.182923
v -0.004000 -0.155563 -0.155563
v -0.004000 -0.182923 -0.122225
v -0.004000 -0.203254 -0.084190
v -0.004000 -0.215773 -0.042920
v -0.004000 -0.220000 0.000000
v -0.004000 -0.215773 0.042920
v -0.004000 -0.203253 0.084190
v -0.004000 -0.182923 0.122226
v -0.004000 -0.155563 0.155564
v -0.004000 -0.122225 0.182923
v -0.004000 -0.084190 0.203254
v -0.004000 -0.042920 0.215773
v -0.004000 0.000000 0.220000
v -0.004000 0.042920 0.215773
v -0.004000 0.084191 0.203253
v -0.004000 0.122226 0.182923
v -0.004000 0.155564 0.155563
v -0.004000 0.182923 0.122225
v -0.004000 0.203254 0.084190
v -0.004000 0.215773 0.042920
vn -1.000000 -0.000000 -0.000000
usemtl Material.004
s off
f 67//3 68//3 69//3
f 67//3 69//3 70//3
f 67//3 70//3 71//3
f 67//3 71//3 72//3
f 67//3 72//3 73//3
f 67//3 73//3 74//3
f 67//3 74//3 75//3
f 67//3 75//3 76//3
f 67//3 76//3 77//3
f 67//3 77//3 78//3
f 67//3 78//3 79//3
f 67//3 79//3 80//3
f 67//3 80//3 81//3
f 67//3 81//3 82//3
f 67//3 82//3 83//3
f 67//3 83//3 84//3
f 67//3 84//3 85//3
f 67//3 85//3 86//3
f 67//3 86//3 87//3
f 67//3 87//3 88//3
f 67//3 88//3 89//3
f 67//3 89//3 90//3
f 67//3 90//3 91//3
f 67//3 91//3 92//3
f 67//3 92//3 93//3
f 67//3 93//3 94//3
f 67//3 94//3 95//3
f 67//3 95//3 96//3
f 67//3 96//3 97//3
f 67//3 97//3 98//3
f 67//3 98//3 99//3
f 67//3 99//3 68//3
o Circle.010
v -0.006000 -0.031677 -0.016011
v -0.006000 -0.031677 -0.038497
v -0.006000 0.137109 -0.038497
v -0.006000 0.137109 -0.087738
v -0.006000 -0.023707 -0.178535
v -0.006000 -0.072948 -0.178535
v -0.006000 -0.072948 -0.079768
v -0.006000 -0.130159 -0.079768
v -0.006000 -0.130159 -0.038497
v -0.006000 -0.072948 -0.038497
v -0.006000 -0.072948 -0.016011
v -0.006000 -0.031677 -0.143526
v -0.006000 0.081321 -0.079768
v -0.006000 -0.031677 -0.079768
vn -1.000000 -0.000000 -0.000000
vn 0.000000 1.000000 0.000000
vn 0.000000 0.000000 1.000000
usemtl Material.005
s off
f 104//4 102//4 103//4
f 104//4 112//4 102//4
f 112//4 101//4 102//4
f 104//4 111//4 112//4
f 113//4 101//4 112//4
f 105//4 111//4 104//4
f 105//4 113//4 111//4
f 105//4 101//4 113//4
f 105//4 100//4 101//4
f 105//4 110//4 100//4
f 106//5 110//5 105//5
f 107//4 109//4 106//4
f 109//6 110//6 106//6
f 107//4 108//4 109//4
o Circle.009
v -0.003000 -0.097711 0.094994
o Circle.008
v -0.003000 -0.001222 0.138258
o Circle.007
v -0.003000 0.099822 0.094994
o Circle.006
v -0.003000 -0.001222 0.051731
o Circle.005
v -0.003000 -0.001222 0.181522
o Circle.004
v -0.003000 -0.136421 0.094994
o Circle.003_Circle.002
v -0.003000 -0.001222 0.008467
o Circle.002_Circle.001
v -0.006000 0.138685 0.087619
v -0.006000 0.137724 0.080577
v -0.006000 0.136215 0.073867
v -0.006000 0.134162 0.067491
v -0.006000 0.131562 0.061447
v -0.006000 0.128418 0.055734
v -0.006000 0.124728 0.050352
v -0.006000 0.120494 0.045301
v -0.006000 0.115715 0.040579
v -0.006000 0.110392 0.036188
v -0.006000 0.104525 0.032125
v -0.006000 0.098114 0.028391
v -0.006000 0.094631 0.026590
v -0.006000 0.091108 0.024888
v -0.006000 0.087545 0.023282
v -0.006000 0.083942 0.021773
v -0.006000 0.080299 0.020358
v -0.006000 0.076618 0.019037
v -0.006000 0.072897 0.017809
v -0.006000 0.069137 0.016672
v -0.006000 0.065338 0.015626
v -0.006000 0.061501 0.014670
v -0.006000 0.057626 0.013802
v -0.006000 0.053712 0.013021
v -0.006000 0.049156 0.012207
v -0.006000 0.044596 0.011471
v -0.006000 0.040032 0.010815
v -0.006000 0.035464 0.010238
v -0.006000 0.030892 0.009740
v -0.006000 0.026316 0.009321
v -0.006000 0.021737 0.008981
v -0.006000 0.017153 0.008720
v -0.006000 0.012565 0.008538
v -0.006000 0.007974 0.008435
v -0.006000 0.003378 0.008412
v -0.006000 -0.001222 0.008467
v -0.006000 -0.005395 0.008406
v -0.006000 -0.009567 0.008412
v -0.006000 -0.013736 0.008485
v -0.006000 -0.017904 0.008625
v -0.006000 -0.022070 0.008833
v -0.006000 -0.026233 0.009107
v -0.006000 -0.030395 0.009449
v -0.006000 -0.034555 0.009858
v -0.006000 -0.038713 0.010335
v -0.006000 -0.042868 0.010878
v -0.006000 -0.047022 0.011489
v -0.006000 -0.051174 0.012167
v -0.006000 -0.055306 0.012932
v -0.006000 -0.059401 0.013804
v -0.006000 -0.063458 0.014782
v -0.006000 -0.067477 0.015867
v -0.006000 -0.071459 0.017059
v -0.006000 -0.075403 0.018358
v -0.006000 -0.079310 0.019763
v -0.006000 -0.083179 0.021275
v -0.006000 -0.087011 0.022894
v -0.006000 -0.090805 0.024620
v -0.006000 -0.094561 0.026452
v -0.006000 -0.098280 0.028391
v -0.006000 -0.104372 0.032202
v -0.006000 -0.109934 0.036329
v -0.006000 -0.114967 0.040772
v -0.006000 -0.119469 0.045532
v -0.006000 -0.123442 0.050608
v -0.006000 -0.126886 0.056000
v -0.006000 -0.129799 0.061708
v -0.006000 -0.132183 0.067733
v -0.006000 -0.134037 0.074074
v -0.006000 -0.135361 0.080731
v -0.006000 -0.136156 0.087705
v -0.006000 -0.136421 0.094994
v -0.006000 -0.136156 0.102195
v -0.006000 -0.135361 0.109091
v -0.006000 -0.134037 0.115683
v -0.006000 -0.132183 0.121971
v -0.006000 -0.129799 0.127954
v -0.006000 -0.126886 0.133633
v -0.006000 -0.123442 0.139007
v -0.006000 -0.119469 0.144077
v -0.006000 -0.114967 0.148843
v -0.006000 -0.109934 0.153304
v -0.006000 -0.104372 0.157461
v -0.006000 -0.098280 0.161313
v -0.006000 -0.094561 0.163207
v -0.006000 -0.090805 0.164998
v -0.006000 -0.087011 0.166686
v -0.006000 -0.083179 0.168271
v -0.006000 -0.079310 0.169753
v -0.006000 -0.075403 0.171133
v -0.006000 -0.071459 0.172410
v -0.006000 -0.067477 0.173584
v -0.006000 -0.063458 0.174655
v -0.006000 -0.059401 0.175624
v -0.006000 -0.055306 0.176490
v -0.006000 -0.051174 0.177252
v -0.006000 -0.047022 0.177934
v -0.006000 -0.042868 0.178557
v -0.006000 -0.038713 0.179120
v -0.006000 -0.034555 0.179624
v -0.006000 -0.030395 0.180069
v -0.006000 -0.026233 0.180455
v -0.006000 -0.022070 0.180781
v -0.006000 -0.017904 0.181047
v -0.006000 -0.013736 0.181255
v -0.006000 -0.009567 0.181403
v -0.006000 -0.005395 0.181492
v -0.006000 -0.001222 0.181522
v -0.006000 0.003378 0.181484
v -0.006000 0.007972 0.181371
v -0.006000 0.012562 0.181185
v -0.006000 0.017148 0.180926
v -0.006000 0.021730 0.180596
v -0.006000 0.026308 0.180196
v -0.006000 0.030883 0.179728
v -0.006000 0.035454 0.179192
v -0.006000 0.040023 0.178590
v -0.006000 0.044588 0.177923
v -0.006000 0.049151 0.177192
v -0.006000 0.053712 0.176399
v -0.006000 0.057632 0.175645
v -0.006000 0.061515 0.174807
v -0.006000 0.065361 0.173883
v -0.006000 0.069169 0.172869
v -0.006000 0.072937 0.171765
v -0.006000 0.076664 0.170567
v -0.006000 0.080350 0.169274
v -0.006000 0.083993 0.167885
v -0.006000 0.087592 0.166396
v -0.006000 0.091146 0.164806
v -0.006000 0.094654 0.163112
v -0.006000 0.098114 0.161313
v -0.006000 0.104530 0.157548
v -0.006000 0.110401 0.153462
v -0.006000 0.115726 0.149056
v -0.006000 0.120505 0.144330
v -0.006000 0.124739 0.139284
v -0.006000 0.128427 0.133918
v -0.006000 0.131570 0.128231
v -0.006000 0.134167 0.122224
v -0.006000 0.136219 0.115897
v -0.006000 0.137725 0.109250
v -0.006000 0.138686 0.102282
v -0.006000 0.139101 0.094994
v -0.006000 0.005262 0.051543
v -0.006000 0.011713 0.051549
v -0.006000 0.018133 0.051748
v -0.006000 0.024522 0.052142
v -0.006000 0.030878 0.052729
v -0.006000 0.037203 0.053510
v -0.006000 0.043497 0.054484
v -0.006000 0.049759 0.055652
v -0.006000 0.055989 0.057014
v -0.006000 0.062188 0.058570
v -0.006000 0.068355 0.060319
v -0.006000 0.074490 0.062262
v -0.006000 0.078188 0.063794
v -0.006000 0.081598 0.065543
v -0.006000 0.084719 0.067510
v -0.006000 0.087551 0.069694
v -0.006000 0.090095 0.072095
v -0.006000 0.092351 0.074714
v -0.006000 0.094317 0.077551
v -0.006000 0.095995 0.080605
v -0.006000 0.097385 0.083876
v -0.006000 0.098486 0.087365
v -0.006000 0.099298 0.091071
v -0.006000 0.099822 0.094994
v -0.006000 0.099300 0.098875
v -0.006000 0.098492 0.102545
v -0.006000 0.097396 0.106003
v -0.006000 0.096013 0.109246
v -0.006000 0.094342 0.112271
v -0.006000 0.092381 0.115077
v -0.006000 0.090130 0.117660
v -0.006000 0.087588 0.120019
v -0.006000 0.084753 0.122150
v -0.006000 0.081626 0.124052
v -0.006000 0.078205 0.125722
v -0.006000 0.074490 0.127158
v -0.006000 0.068355 0.129148
v -0.006000 0.062188 0.130945
v -0.006000 0.055989 0.132548
v -0.006000 0.049759 0.133957
v -0.006000 0.043497 0.135173
v -0.006000 0.037203 0.136195
v -0.006000 0.030878 0.137023
v -0.006000 0.024522 0.137657
v -0.006000 0.018133 0.138098
v -0.006000 0.011713 0.138345
v -0.006000 0.005262 0.138398
v -0.006000 -0.001222 0.138258
v -0.006000 -0.004351 0.138244
v -0.006000 -0.007479 0.138203
v -0.006000 -0.010605 0.138134
v -0.006000 -0.013729 0.138037
v -0.006000 -0.016852 0.137912
v -0.006000 -0.019972 0.137760
v -0.006000 -0.023090 0.137580
v -0.006000 -0.026206 0.137373
v -0.006000 -0.029320 0.137137
v -0.006000 -0.032432 0.136874
v -0.006000 -0.035542 0.136584
v -0.006000 -0.038650 0.136266
v -0.006000 -0.041751 0.135898
v -0.006000 -0.044837 0.135459
v -0.006000 -0.047909 0.134948
v -0.006000 -0.050968 0.134367
v -0.006000 -0.054013 0.133714
v -0.006000 -0.057044 0.132990
v -0.006000 -0.060061 0.132195
v -0.006000 -0.063064 0.131329
v -0.006000 -0.066054 0.130392
v -0.006000 -0.069030 0.129385
v -0.006000 -0.071992 0.128307
v -0.006000 -0.074941 0.127158
v -0.006000 -0.078447 0.125586
v -0.006000 -0.081661 0.123813
v -0.006000 -0.084583 0.121839
v -0.006000 -0.087211 0.119662
v -0.006000 -0.089548 0.117284
v -0.006000 -0.091592 0.114705
v -0.006000 -0.093343 0.111924
v -0.006000 -0.094802 0.108941
v -0.006000 -0.095968 0.105757
v -0.006000 -0.096841 0.102371
v -0.006000 -0.097423 0.098783
v -0.006000 -0.097711 0.094994
v -0.006000 -0.097424 0.091155
v -0.006000 -0.096846 0.087512
v -0.006000 -0.095977 0.084068
v -0.006000 -0.094816 0.080823
v -0.006000 -0.093362 0.077781
v -0.006000 -0.091615 0.074941
v -0.006000 -0.089575 0.072306
v -0.006000 -0.087240 0.069878
v -0.006000 -0.084609 0.067658
v -0.006000 -0.081683 0.065647
v -0.006000 -0.078461 0.063848
v -0.006000 -0.074941 0.062262
v -0.006000 -0.071993 0.061113
v -0.006000 -0.069031 0.060036
v -0.006000 -0.066055 0.059033
v -0.006000 -0.063065 0.058103
v -0.006000 -0.060062 0.057246
v -0.006000 -0.057045 0.056463
v -0.006000 -0.054014 0.055752
v -0.006000 -0.050969 0.055115
v -0.006000 -0.047910 0.054550
v -0.006000 -0.044837 0.054059
v -0.006000 -0.041751 0.053641
v -0.006000 -0.038650 0.053296
v -0.006000 -0.035542 0.053003
v -0.006000 -0.032432 0.052739
v -0.006000 -0.029320 0.052504
v -0.006000 -0.026206 0.052300
v -0.006000 -0.023090 0.052125
v -0.006000 -0.019972 0.051980
v -0.006000 -0.016851 0.051864
v -0.006000 -0.013729 0.051778
v -0.006000 -0.010605 0.051722
v -0.006000 -0.007479 0.051695
v -0.006000 -0.004351 0.051698
v -0.006000 -0.001222 0.051731
vn -1.000000 0.000000 -0.000000
usemtl Material.005
s off
f 121//7 263//7 264//7
f 121//7 262//7 263//7
f 122//7 262//7 121//7
f 122//7 261//7 262//7
f 123//7 261//7 122//7
f 123//7 260//7 261//7
f 124//7 260//7 123//7
f 124//7 259//7 260//7
f 125//7 259//7 124//7
f 125//7 258//7 259//7
f 126//7 258//7 125//7
f 126//7 257//7 258//7
f 127//7 257//7 126//7
f 127//7 256//7 257//7
f 128//7 256//7 127//7
f 128//7 255//7 256//7
f 129//7 255//7 128//7
f 129//7 254//7 255//7
f 130//7 254//7 129//7
f 130//7 253//7 254//7
f 131//7 253//7 130//7
f 131//7 252//7 253//7
f 132//7 288//7 131//7
f 288//7 252//7 131//7
f 132//7 287//7 288//7
f 289//7 252//7 288//7
f 290//7 252//7 289//7
f 132//7 286//7 287//7
f 291//7 252//7 290//7
f 132//7 285//7 286//7
f 133//7 285//7 132//7
f 291//7 251//7 252//7
f 292//7 251//7 291//7
f 133//7 284//7 285//7
f 293//7 251//7 292//7
f 133//7 283//7 284//7
f 293//7 250//7 251//7
f 134//7 283//7 133//7
f 294//7 250//7 293//7
f 134//7 282//7 283//7
f 295//7 250//7 294//7
f 134//7 281//7 282//7
f 295//7 249//7 250//7
f 135//7 281//7 134//7
f 296//7 249//7 295//7
f 135//7 280//7 281//7
f 296//7 248//7 249//7
f 297//7 248//7 296//7
f 135//7 279//7 280//7
f 136//7 279//7 135//7
f 298//7 248//7 297//7
f 136//7 278//7 279//7
f 298//7 247//7 248//7
f 137//7 278//7 136//7
f 299//7 247//7 298//7
f 137//7 277//7 278//7
f 299//7 246//7 247//7
f 138//7 277//7 137//7
f 300//7 246//7 299//7
f 138//7 276//7 277//7
f 300//7 245//7 246//7
f 139//7 276//7 138//7
f 139//7 275//7 276//7
f 301//7 245//7 300//7
f 301//7 244//7 245//7
f 140//7 275//7 139//7
f 301//7 243//7 244//7
f 141//7 275//7 140//7
f 302//7 243//7 301//7
f 141//7 274//7 275//7
f 302//7 242//7 243//7
f 142//7 274//7 141//7
f 142//7 273//7 274//7
f 303//7 242//7 302//7
f 303//7 241//7 242//7
f 143//7 273//7 142//7
f 303//7 240//7 241//7
f 144//7 273//7 143//7
f 144//7 272//7 273//7
f 304//7 240//7 303//7
f 145//7 272//7 144//7
f 304//7 239//7 240//7
f 145//7 271//7 272//7
f 305//7 239//7 304//7
f 146//7 271//7 145//7
f 305//7 238//7 239//7
f 147//7 271//7 146//7
f 305//7 237//7 238//7
f 147//7 270//7 271//7
f 306//7 237//7 305//7
f 148//7 270//7 147//7
f 306//7 236//7 237//7
f 148//7 269//7 270//7
f 307//7 236//7 306//7
f 149//7 269//7 148//7
f 307//7 235//7 236//7
f 150//7 269//7 149//7
f 307//7 234//7 235//7
f 150//7 268//7 269//7
f 308//7 234//7 307//7
f 151//7 268//7 150//7
f 308//7 233//7 234//7
f 151//7 267//7 268//7
f 309//7 233//7 308//7
f 152//7 267//7 151//7
f 309//7 232//7 233//7
f 152//7 266//7 267//7
f 310//7 232//7 309//7
f 153//7 266//7 152//7
f 310//7 231//7 232//7
f 154//7 266//7 153//7
f 310//7 230//7 231//7
f 154//7 265//7 266//7
f 311//7 230//7 310//7
f 155//7 265//7 154//7
f 311//7 229//7 230//7
f 155//7 384//7 265//7
f 312//7 229//7 311//7
f 156//7 384//7 155//7
f 312//7 228//7 229//7
f 157//7 384//7 156//7
f 157//7 383//7 384//7
f 313//7 228//7 312//7
f 313//7 227//7 228//7
f 157//7 382//7 383//7
f 314//7 227//7 313//7
f 314//7 226//7 227//7
f 158//7 382//7 157//7
f 158//7 381//7 382//7
f 315//7 226//7 314//7
f 315//7 225//7 226//7
f 159//7 381//7 158//7
f 159//7 380//7 381//7
f 316//7 225//7 315//7
f 159//7 379//7 380//7
f 317//7 225//7 316//7
f 317//7 224//7 225//7
f 160//7 379//7 159//7
f 160//7 378//7 379//7
f 318//7 224//7 317//7
f 318//7 223//7 224//7
f 161//7 378//7 160//7
f 161//7 377//7 378//7
f 319//7 223//7 318//7
f 319//7 222//7 223//7
f 162//7 377//7 161//7
f 162//7 376//7 377//7
f 320//7 222//7 319//7
f 162//7 375//7 376//7
f 321//7 222//7 320//7
f 321//7 221//7 222//7
f 163//7 375//7 162//7
f 163//7 374//7 375//7
f 322//7 221//7 321//7
f 164//7 374//7 163//7
f 322//7 220//7 221//7
f 164//7 373//7 374//7
f 323//7 220//7 322//7
f 165//7 373//7 164//7
f 323//7 219//7 220//7
f 165//7 372//7 373//7
f 324//7 219//7 323//7
f 165//7 371//7 372//7
f 325//7 219//7 324//7
f 166//7 371//7 165//7
f 325//7 218//7 219//7
f 326//7 218//7 325//7
f 166//7 370//7 371//7
f 167//7 370//7 166//7
f 326//7 217//7 218//7
f 327//7 217//7 326//7
f 167//7 369//7 370//7
f 168//7 369//7 167//7
f 327//7 216//7 217//7
f 328//7 216//7 327//7
f 168//7 368//7 369//7
f 329//7 216//7 328//7
f 168//7 367//7 368//7
f 169//7 367//7 168//7
f 329//7 215//7 216//7
f 330//7 215//7 329//7
f 169//7 366//7 367//7
f 170//7 366//7 169//7
f 330//7 214//7 215//7
f 331//7 214//7 330//7
f 170//7 365//7 366//7
f 171//7 365//7 170//7
f 331//7 213//7 214//7
f 332//7 213//7 331//7
f 171//7 364//7 365//7
f 333//7 213//7 332//7
f 171//7 363//7 364//7
f 172//7 363//7 171//7
f 333//7 212//7 213//7
f 334//7 212//7 333//7
f 172//7 362//7 363//7
f 173//7 362//7 172//7
f 334//7 211//7 212//7
f 335//7 211//7 334//7
f 173//7 361//7 362//7
f 174//7 361//7 173//7
f 335//7 210//7 211//7
f 336//7 210//7 335//7
f 174//7 360//7 361//7
f 174//7 359//7 360//7
f 337//7 210//7 336//7
f 175//7 359//7 174//7
f 337//7 209//7 210//7
f 338//7 209//7 337//7
f 175//7 358//7 359//7
f 176//7 358//7 175//7
f 338//7 208//7 209//7
f 339//7 208//7 338//7
f 176//7 357//7 358//7
f 177//7 357//7 176//7
f 339//7 207//7 208//7
f 340//7 207//7 339//7
f 177//7 356//7 357//7
f 178//7 356//7 177//7
f 340//7 206//7 207//7
f 341//7 206//7 340//7
f 178//7 355//7 356//7
f 342//7 206//7 341//7
f 178//7 354//7 355//7
f 179//7 354//7 178//7
f 342//7 205//7 206//7
f 343//7 205//7 342//7
f 179//7 353//7 354//7
f 344//7 205//7 343//7
f 179//7 352//7 353//7
f 180//7 352//7 179//7
f 344//7 204//7 205//7
f 345//7 204//7 344//7
f 180//7 351//7 352//7
f 346//7 204//7 345//7
f 180//7 350//7 351//7
f 347//7 204//7 346//7
f 180//7 349//7 350//7
f 348//7 204//7 347//7
f 180//7 348//7 349//7
f 180//7 204//7 348//7
f 181//7 204//7 180//7
f 181//7 203//7 204//7
f 181//7 202//7 203//7
f 182//7 202//7 181//7
f 182//7 201//7 202//7
f 183//7 201//7 182//7
f 183//7 200//7 201//7
f 184//7 200//7 183//7
f 184//7 199//7 200//7
f 185//7 199//7 184//7
f 185//7 198//7 199//7
f 186//7 198//7 185//7
f 186//7 197//7 198//7
f 187//7 197//7 186//7
f 187//7 196//7 197//7
f 188//7 196//7 187//7
f 188//7 195//7 196//7
f 189//7 195//7 188//7
f 189//7 194//7 195//7
f 190//7 194//7 189//7
f 190//7 193//7 194//7
f 191//7 193//7 190//7
f 191//7 192//7 193//7
o Circle.001_Circle.000
v -0.003000 0.139101 0.094994
