# Blender v2.76 (sub 0) OBJ File: 'track2(one).blend'
# www.blender.org
o Cube.001
v -0.225000 0.040000 -0.717500
v -0.225000 0.140000 -0.717500
v -0.225000 0.040000 -0.777500
v -0.225000 0.140000 -0.777500
v 0.225000 0.040000 -0.717500
v 0.225000 0.140000 -0.717500
v 0.225000 0.040000 -0.777500
v 0.225000 0.140000 -0.777500
v 0.100000 -0.000000 -1.079999
v 0.100000 -0.000000 1.080000
v -0.100000 -0.000000 1.079999
v -0.100000 -0.000000 -1.080000
v 0.100000 0.040000 -1.079999
v 0.100000 0.040000 1.080000
v -0.100000 0.040000 1.079999
v -0.100000 0.040000 -1.080000
v -0.225000 0.040000 0.777500
v -0.225000 0.140000 0.777500
v -0.225000 0.040000 0.717500
v -0.225000 0.140000 0.717500
v 0.225000 0.040000 0.777500
v 0.225000 0.140000 0.777500
v 0.225000 0.040000 0.717500
v 0.225000 0.140000 0.717500
vt 0.296663 0.712269
vt 0.296663 0.994251
vt 0.014681 0.994251
vt 0.011581 0.715554
vt 0.293563 0.715554
vt 0.293563 0.997536
vt 0.015050 0.991151
vt 0.015050 0.709169
vt 0.297032 0.709169
vt 0.011765 0.997352
vt 0.011765 0.715370
vt 0.293747 0.715370
vt 0.014681 0.709538
vt 0.296663 0.709538
vt 0.296663 0.991520
vt 0.293931 0.994436
vt 0.011950 0.994436
vt 0.011950 0.712454
vt 0.998209 0.528458
vt 0.342834 0.525358
vt 0.342834 0.003300
vt 0.993517 0.525358
vt 0.341243 0.528458
vt 0.344343 0.009501
vt 0.993517 0.520748
vt 0.341243 0.526949
vt 0.350544 0.007992
vt 0.990417 0.525440
vt 0.344343 0.522340
vt 0.350544 0.012684
vt 0.347526 0.003300
vt 0.999800 0.000200
vt 0.990499 0.519157
vt 0.995109 0.523849
vt 0.345935 0.520748
vt 0.349035 0.001791
vt 0.290010 0.716191
vt 0.305512 0.993799
vt 0.000000 1.000000
vt 0.290010 0.725492
vt 0.299311 0.984498
vt 0.293110 0.725492
vt 0.293110 0.987598
vt 0.305512 0.722391
vt 0.296211 0.981398
vt 0.299311 0.978297
vt 0.012402 0.993799
vt 0.014681 0.712270
vt 0.011581 0.997536
vt 0.297032 0.991151
vt 0.293747 0.997352
vt 0.014681 0.991520
vt 0.293931 0.712454
vt 1.004410 0.000200
vt 0.996618 0.006401
vt 0.987316 0.020393
vt 0.990417 0.015784
vt 0.341325 0.525358
vt 0.988908 0.011092
vt 0.027904 0.725492
vt 0.012402 0.719291
vt 0.015502 0.731693
vt 0.015502 0.722391
vn -1.000000 0.000000 0.000000
vn 0.000000 0.000000 -1.000000
vn 1.000000 0.000000 0.000000
vn 0.000000 0.000000 1.000000
vn 0.000000 -1.000000 0.000000
vn 0.000000 1.000000 0.000000
s off
f 4/1/1 3/2/1 1/3/1
f 8/4/2 7/5/2 3/6/2
f 6/7/3 5/8/3 7/9/3
f 2/10/4 1/11/4 5/12/4
f 3/13/5 7/14/5 5/15/5
f 8/16/6 4/17/6 2/18/6
f 9/19/5 10/20/5 11/21/5
f 13/22/6 16/23/6 15/24/6
f 13/25/3 14/26/3 10/27/3
f 14/28/4 15/29/4 11/30/4
f 15/31/1 16/32/1 12/33/1
f 9/34/2 12/35/2 16/36/2
f 20/37/1 19/38/1 17/39/1
f 24/40/2 23/41/2 19/39/2
f 22/42/3 21/43/3 23/39/3
f 18/44/4 17/45/4 21/39/4
f 19/37/5 23/41/5 21/39/5
f 24/40/6 20/46/6 18/47/6
f 2/48/1 4/1/1 1/3/1
f 4/49/2 8/4/2 3/6/2
f 8/50/3 6/7/3 7/9/3
f 6/51/4 2/10/4 5/12/4
f 1/52/5 3/13/5 5/15/5
f 6/53/6 8/16/6 2/18/6
f 12/54/5 9/19/5 11/21/5
f 14/55/6 13/22/6 15/24/6
f 9/56/3 13/25/3 10/27/3
f 10/57/4 14/28/4 11/30/4
f 11/58/1 15/31/1 12/33/1
f 13/59/2 9/34/2 16/36/2
f 18/60/1 20/37/1 17/39/1
f 20/61/2 24/40/2 19/39/2
f 24/62/3 22/42/3 23/39/3
f 22/63/4 18/44/4 21/39/4
f 17/61/5 19/37/5 21/39/5
f 22/63/6 24/40/6 18/47/6
