# Blender v2.76 (sub 0) OBJ File: 'tire.blend'
# www.blender.org
mtllib tire.mtl
o Cylinder_Cylinder.002
v -0.215000 0.000000 -0.812000
v 0.215000 -0.000000 -0.812000
v -0.215000 -0.101771 -0.805597
v 0.215000 -0.101771 -0.805597
v -0.215000 -0.201936 -0.786489
v 0.215000 -0.201936 -0.786489
v -0.215000 -0.298917 -0.754978
v 0.215000 -0.298917 -0.754978
v -0.215000 -0.391184 -0.711561
v 0.215000 -0.391184 -0.711561
v -0.215000 -0.477282 -0.656922
v 0.215000 -0.477282 -0.656922
v -0.215000 -0.555852 -0.591923
v 0.215000 -0.555852 -0.591923
v -0.215000 -0.625657 -0.517588
v 0.215000 -0.625657 -0.517588
v -0.215000 -0.685594 -0.435091
v 0.215000 -0.685594 -0.435091
v -0.215000 -0.734720 -0.345733
v 0.215000 -0.734720 -0.345733
v -0.215000 -0.772258 -0.250922
v 0.215000 -0.772258 -0.250922
v -0.215000 -0.797617 -0.152153
v 0.215000 -0.797617 -0.152153
v -0.215000 -0.810398 -0.050986
v 0.215000 -0.810398 -0.050986
v -0.215000 -0.810398 0.050986
v 0.215000 -0.810398 0.050986
v -0.215000 -0.797617 0.152154
v 0.215000 -0.797617 0.152154
v -0.215000 -0.772258 0.250922
v 0.215000 -0.772258 0.250922
v -0.215000 -0.734719 0.345733
v 0.215000 -0.734719 0.345733
v -0.215000 -0.685594 0.435092
v 0.215000 -0.685594 0.435092
v -0.215000 -0.625656 0.517589
v 0.215000 -0.625656 0.517589
v -0.215000 -0.555852 0.591923
v 0.215000 -0.555852 0.591923
v -0.215000 -0.477281 0.656922
v 0.215000 -0.477281 0.656922
v -0.215000 -0.391184 0.711561
v 0.215000 -0.391184 0.711561
v -0.215000 -0.298917 0.754979
v 0.215000 -0.298917 0.754979
v -0.215000 -0.201936 0.786490
v 0.215000 -0.201936 0.786490
v -0.215000 -0.101770 0.805597
v 0.215000 -0.101770 0.805597
v -0.215000 0.000001 0.812000
v 0.215000 0.000001 0.812000
v -0.215000 0.101771 0.805597
v 0.215000 0.101771 0.805597
v -0.215000 0.201937 0.786489
v 0.215000 0.201937 0.786489
v -0.215000 0.298918 0.754978
v 0.215000 0.298918 0.754978
v -0.215000 0.391185 0.711561
v 0.215000 0.391185 0.711561
v -0.215000 0.477282 0.656921
v 0.215000 0.477282 0.656921
v -0.215000 0.555853 0.591922
v 0.215000 0.555853 0.591922
v -0.215000 0.625657 0.517588
v 0.215000 0.625657 0.517588
v -0.215000 0.685595 0.435091
v 0.215000 0.685595 0.435091
v -0.215000 0.734720 0.345732
v 0.215000 0.734720 0.345732
v -0.215000 0.772258 0.250921
v 0.215000 0.772258 0.250921
v -0.215000 0.797617 0.152153
v 0.215000 0.797617 0.152153
v -0.215000 0.810398 0.050985
v 0.215000 0.810398 0.050985
v -0.215000 0.810398 -0.050987
v 0.215000 0.810398 -0.050987
v -0.215000 0.797617 -0.152155
v 0.215000 0.797617 -0.152155
v -0.215000 0.772257 -0.250923
v 0.215000 0.772257 -0.250923
v -0.215000 0.734719 -0.345734
v 0.215000 0.734719 -0.345734
v -0.215000 0.685594 -0.435093
v 0.215000 0.685594 -0.435093
v -0.215000 0.625656 -0.517589
v 0.215000 0.625656 -0.517589
v -0.215000 0.555851 -0.591924
v 0.215000 0.555851 -0.591924
v -0.215000 0.477280 -0.656923
v 0.215000 0.477280 -0.656923
v -0.215000 0.391183 -0.711562
v 0.215000 0.391183 -0.711562
v -0.215000 0.298916 -0.754979
v 0.215000 0.298916 -0.754979
v -0.215000 0.201935 -0.786490
v 0.215000 0.201935 -0.786490
v -0.215000 0.101769 -0.805597
v 0.215000 0.101769 -0.805597
vn -0.000000 -0.062800 -0.998000
vn 0.000000 -0.187400 -0.982300
vn 0.000000 -0.309000 -0.951100
vn 0.000000 -0.425800 -0.904800
vn 0.000000 -0.535800 -0.844300
vn 0.000000 -0.637400 -0.770500
vn 0.000000 -0.729000 -0.684500
vn 0.000000 -0.809000 -0.587800
vn 0.000000 -0.876300 -0.481800
vn 0.000000 -0.929800 -0.368100
vn 0.000000 -0.968600 -0.248700
vn 0.000000 -0.992100 -0.125300
vn 0.000000 -1.000000 0.000000
vn 0.000000 -0.992100 0.125300
vn 0.000000 -0.968600 0.248700
vn 0.000000 -0.929800 0.368100
vn 0.000000 -0.876300 0.481800
vn 0.000000 -0.809000 0.587800
vn 0.000000 -0.729000 0.684500
vn 0.000000 -0.637400 0.770500
vn 0.000000 -0.535800 0.844300
vn 0.000000 -0.425800 0.904800
vn -0.000000 -0.309000 0.951100
vn -0.000000 -0.187400 0.982300
vn -0.000000 -0.062800 0.998000
vn 0.000000 0.062800 0.998000
vn -0.000000 0.187400 0.982300
vn 0.000000 0.309000 0.951100
vn 0.000000 0.425800 0.904800
vn 0.000000 0.535800 0.844300
vn 0.000000 0.637400 0.770500
vn 0.000000 0.729000 0.684500
vn 0.000000 0.809000 0.587800
vn 0.000000 0.876300 0.481800
vn 0.000000 0.929800 0.368100
vn 0.000000 0.968600 0.248700
vn 0.000000 0.992100 0.125300
vn 0.000000 1.000000 -0.000000
vn 0.000000 0.992100 -0.125300
vn 0.000000 0.968600 -0.248700
vn 0.000000 0.929800 -0.368100
vn 0.000000 0.876300 -0.481800
vn 0.000000 0.809000 -0.587800
vn 0.000000 0.729000 -0.684500
vn 0.000000 0.637400 -0.770500
vn 0.000000 0.535800 -0.844300
vn 0.000000 0.425800 -0.904800
vn 0.000000 0.309000 -0.951100
vn 1.000000 0.000000 0.000000
vn 0.000000 0.062800 -0.998000
vn -0.000000 0.187400 -0.982300
vn -1.000000 0.000000 -0.000000
usemtl Material.002
s off
f 2//1 4//1 3//1
f 4//2 6//2 5//2
f 6//3 8//3 7//3
f 8//4 10//4 9//4
f 10//5 12//5 11//5
f 12//6 14//6 13//6
f 14//7 16//7 15//7
f 16//8 18//8 17//8
f 18//9 20//9 19//9
f 20//10 22//10 21//10
f 22//11 24//11 23//11
f 24//12 26//12 25//12
f 26//13 28//13 27//13
f 28//14 30//14 29//14
f 30//15 32//15 31//15
f 32//16 34//16 33//16
f 34//17 36//17 35//17
f 36//18 38//18 37//18
f 38//19 40//19 39//19
f 40//20 42//20 41//20
f 42//21 44//21 43//21
f 44//22 46//22 45//22
f 46//23 48//23 47//23
f 48//24 50//24 49//24
f 50//25 52//25 51//25
f 52//26 54//26 53//26
f 54//27 56//27 55//27
f 56//28 58//28 57//28
f 58//29 60//29 59//29
f 60//30 62//30 61//30
f 62//31 64//31 63//31
f 64//32 66//32 65//32
f 66//33 68//33 67//33
f 68//34 70//34 69//34
f 70//35 72//35 71//35
f 72//36 74//36 73//36
f 74//37 76//37 75//37
f 76//38 78//38 77//38
f 78//39 80//39 79//39
f 80//40 82//40 81//40
f 82//41 84//41 83//41
f 84//42 86//42 85//42
f 86//43 88//43 87//43
f 88//44 90//44 89//44
f 90//45 92//45 91//45
f 92//46 94//46 93//46
f 94//47 96//47 95//47
f 96//48 98//48 97//48
f 98//49 50//49 34//49
f 100//50 2//50 1//50
f 98//51 100//51 99//51
f 7//52 39//52 71//52
f 1//1 2//1 3//1
f 3//2 4//2 5//2
f 5//3 6//3 7//3
f 7//4 8//4 9//4
f 9//5 10//5 11//5
f 11//6 12//6 13//6
f 13//7 14//7 15//7
f 15//8 16//8 17//8
f 17//9 18//9 19//9
f 19//10 20//10 21//10
f 21//11 22//11 23//11
f 23//12 24//12 25//12
f 25//13 26//13 27//13
f 27//14 28//14 29//14
f 29//15 30//15 31//15
f 31//16 32//16 33//16
f 33//17 34//17 35//17
f 35//18 36//18 37//18
f 37//19 38//19 39//19
f 39//20 40//20 41//20
f 41//21 42//21 43//21
f 43//22 44//22 45//22
f 45//23 46//23 47//23
f 47//24 48//24 49//24
f 49//25 50//25 51//25
f 51//26 52//26 53//26
f 53//27 54//27 55//27
f 55//28 56//28 57//28
f 57//29 58//29 59//29
f 59//30 60//30 61//30
f 61//31 62//31 63//31
f 63//32 64//32 65//32
f 65//33 66//33 67//33
f 67//34 68//34 69//34
f 69//35 70//35 71//35
f 71//36 72//36 73//36
f 73//37 74//37 75//37
f 75//38 76//38 77//38
f 77//39 78//39 79//39
f 79//40 80//40 81//40
f 81//41 82//41 83//41
f 83//42 84//42 85//42
f 85//43 86//43 87//43
f 87//44 88//44 89//44
f 89//45 90//45 91//45
f 91//46 92//46 93//46
f 93//47 94//47 95//47
f 95//48 96//48 97//48
f 6//49 4//49 2//49
f 2//49 100//49 6//49
f 98//49 96//49 94//49
f 94//49 92//49 98//49
f 90//49 88//49 82//49
f 86//49 84//49 82//49
f 82//49 80//49 78//49
f 78//49 76//49 74//49
f 74//49 72//49 66//49
f 70//49 68//49 66//49
f 66//49 64//49 58//49
f 62//49 60//49 58//49
f 58//49 56//49 54//49
f 54//49 52//49 50//49
f 50//49 48//49 46//49
f 46//49 44//49 50//49
f 42//49 40//49 38//49
f 38//49 36//49 42//49
f 34//49 32//49 30//49
f 30//49 28//49 26//49
f 26//49 24//49 22//49
f 22//49 20//49 18//49
f 18//49 16//49 10//49
f 14//49 12//49 10//49
f 10//49 8//49 6//49
f 6//49 100//49 98//49
f 98//49 92//49 90//49
f 88//49 86//49 82//49
f 82//49 78//49 66//49
f 72//49 70//49 66//49
f 64//49 62//49 58//49
f 58//49 54//49 50//49
f 50//49 44//49 42//49
f 42//49 36//49 34//49
f 34//49 30//49 18//49
f 26//49 22//49 18//49
f 16//49 14//49 10//49
f 10//49 6//49 98//49
f 98//49 90//49 82//49
f 78//49 74//49 66//49
f 66//49 58//49 50//49
f 50//49 42//49 34//49
f 30//49 26//49 18//49
f 18//49 10//49 98//49
f 98//49 82//49 66//49
f 66//49 50//49 98//49
f 34//49 18//49 98//49
f 99//50 100//50 1//50
f 97//51 98//51 99//51
f 99//52 1//52 3//52
f 3//52 5//52 99//52
f 7//52 9//52 15//52
f 11//52 13//52 15//52
f 15//52 17//52 19//52
f 19//52 21//52 15//52
f 23//52 25//52 27//52
f 27//52 29//52 23//52
f 31//52 33//52 35//52
f 35//52 37//52 39//52
f 39//52 41//52 43//52
f 43//52 45//52 47//52
f 47//52 49//52 55//52
f 51//52 53//52 55//52
f 55//52 57//52 63//52
f 59//52 61//52 63//52
f 63//52 65//52 67//52
f 67//52 69//52 71//52
f 71//52 73//52 75//52
f 75//52 77//52 71//52
f 79//52 81//52 87//52
f 83//52 85//52 87//52
f 87//52 89//52 91//52
f 91//52 93//52 87//52
f 95//52 97//52 99//52
f 99//52 5//52 7//52
f 9//52 11//52 15//52
f 15//52 21//52 23//52
f 23//52 29//52 31//52
f 31//52 35//52 23//52
f 39//52 43//52 55//52
f 49//52 51//52 55//52
f 57//52 59//52 63//52
f 63//52 67//52 71//52
f 71//52 77//52 79//52
f 81//52 83//52 87//52
f 87//52 93//52 95//52
f 95//52 99//52 87//52
f 7//52 15//52 39//52
f 23//52 35//52 39//52
f 43//52 47//52 55//52
f 55//52 63//52 71//52
f 71//52 79//52 87//52
f 87//52 99//52 7//52
f 15//52 23//52 39//52
f 39//52 55//52 71//52
f 71//52 87//52 7//52
