# Blender v2.76 (sub 0) OBJ File: 'tire2.blend'
# www.blender.org
o Cylinder_Cylinder.002
v -0.107500 0.000000 -0.360000
v 0.107500 -0.000000 -0.360000
v -0.107500 -0.045209 -0.357161
v 0.107500 -0.045209 -0.357161
v -0.107500 -0.089705 -0.348690
v 0.107500 -0.089705 -0.348690
v -0.107500 -0.132787 -0.334720
v 0.107500 -0.132787 -0.334720
v -0.107500 -0.173774 -0.315470
v 0.107500 -0.173774 -0.315470
v -0.107500 -0.212021 -0.291246
v 0.107500 -0.212021 -0.291246
v -0.107500 -0.246924 -0.262429
v 0.107500 -0.246924 -0.262429
v -0.107500 -0.277933 -0.229473
v 0.107500 -0.277933 -0.229473
v -0.107500 -0.304559 -0.192898
v 0.107500 -0.304559 -0.192898
v -0.107500 -0.326382 -0.153281
v 0.107500 -0.326382 -0.153281
v -0.107500 -0.343057 -0.111246
v 0.107500 -0.343057 -0.111246
v -0.107500 -0.354323 -0.067457
v 0.107500 -0.354323 -0.067457
v -0.107500 -0.360000 -0.022604
v 0.107500 -0.360000 -0.022604
v -0.107500 -0.360000 0.022605
v 0.107500 -0.360000 0.022605
v -0.107500 -0.354323 0.067457
v 0.107500 -0.354323 0.067457
v -0.107500 -0.343057 0.111246
v 0.107500 -0.343057 0.111246
v -0.107500 -0.326382 0.153281
v 0.107500 -0.326382 0.153281
v -0.107500 -0.304559 0.192898
v 0.107500 -0.304559 0.192898
v -0.107500 -0.277933 0.229473
v 0.107500 -0.277933 0.229473
v -0.107500 -0.246924 0.262429
v 0.107500 -0.246924 0.262429
v -0.107500 -0.212021 0.291246
v 0.107500 -0.212021 0.291246
v -0.107500 -0.173774 0.315471
v 0.107500 -0.173774 0.315471
v -0.107500 -0.132787 0.334720
v 0.107500 -0.132787 0.334720
v -0.107500 -0.089705 0.348690
v 0.107500 -0.089705 0.348690
v -0.107500 -0.045209 0.357161
v 0.107500 -0.045209 0.357161
v -0.107500 0.000000 0.360000
v 0.107500 0.000000 0.360000
v -0.107500 0.045209 0.357161
v 0.107500 0.045209 0.357161
v -0.107500 0.089706 0.348690
v 0.107500 0.089706 0.348690
v -0.107500 0.132787 0.334719
v 0.107500 0.132787 0.334719
v -0.107500 0.173775 0.315470
v 0.107500 0.173775 0.315470
v -0.107500 0.212021 0.291246
v 0.107500 0.212021 0.291246
v -0.107500 0.246924 0.262428
v 0.107500 0.246924 0.262428
v -0.107500 0.277933 0.229472
v 0.107500 0.277933 0.229472
v -0.107500 0.304559 0.192897
v 0.107500 0.304559 0.192897
v -0.107500 0.326382 0.153280
v 0.107500 0.326382 0.153280
v -0.107500 0.343057 0.111246
v 0.107500 0.343057 0.111246
v -0.107500 0.354323 0.067457
v 0.107500 0.354323 0.067457
v -0.107500 0.360000 0.022604
v 0.107500 0.360000 0.022604
v -0.107500 0.360000 -0.022605
v 0.107500 0.360000 -0.022605
v -0.107500 0.354322 -0.067458
v 0.107500 0.354322 -0.067458
v -0.107500 0.343057 -0.111247
v 0.107500 0.343057 -0.111247
v -0.107500 0.326382 -0.153281
v 0.107500 0.326382 -0.153281
v -0.107500 0.304559 -0.192898
v 0.107500 0.304559 -0.192898
v -0.107500 0.277933 -0.229473
v 0.107500 0.277933 -0.229473
v -0.107500 0.246924 -0.262429
v 0.107500 0.246924 -0.262429
v -0.107500 0.212021 -0.291247
v 0.107500 0.212021 -0.291247
v -0.107500 0.173774 -0.315471
v 0.107500 0.173774 -0.315471
v -0.107500 0.132786 -0.334720
v 0.107500 0.132786 -0.334720
v -0.107500 0.089705 -0.348690
v 0.107500 0.089705 -0.348690
v -0.107500 0.045208 -0.357161
v 0.107500 0.045208 -0.357161
vt 1.000000 0.000000
vt 1.000000 1.000000
vt 0.000000 1.000000
vt 0.000000 0.000000
vt 0.437333 0.003943
vt 0.562667 0.996057
vt 0.624345 0.984292
vt 0.500000 1.000000
vt 0.500000 0.000000
vt 0.437334 0.996058
vt 0.375655 0.015709
vt 0.684062 0.964888
vt 0.740877 0.938153
vt 0.624345 0.015708
vt 0.793893 0.904508
vt 0.842274 0.864484
vt 0.740877 0.061847
vt 0.885257 0.818712
vt 0.922164 0.767913
vt 0.842273 0.135516
vt 0.952414 0.712890
vt 0.975528 0.654508
vt 0.885256 0.181288
vt 0.991144 0.593691
vt 0.999013 0.531395
vt 0.975528 0.345491
vt 0.999013 0.468605
vt 0.991144 0.406309
vt 0.952413 0.287110
vt 0.922164 0.232086
vt 0.793892 0.095491
vt 0.684062 0.035112
vt 0.562666 0.003943
vt 0.315937 0.035112
vt 0.259123 0.061847
vt 0.206107 0.095492
vt 0.315939 0.964889
vt 0.157726 0.135516
vt 0.259124 0.938154
vt 0.077836 0.232087
vt 0.157727 0.864485
vt 0.206108 0.904509
vt 0.024472 0.345492
vt 0.008856 0.406310
vt 0.047587 0.712890
vt 0.000987 0.468605
vt 0.000987 0.531396
vt 0.008857 0.593691
vt 0.024472 0.654509
vt 0.077836 0.767914
vt 0.114744 0.818713
vt 0.047586 0.287111
vt 0.114743 0.181288
vt 0.375656 0.984292
vn -0.000000 -0.062700 -0.998000
vn -0.000000 -0.187000 -0.982400
vn 0.000000 -0.308500 -0.951200
vn 0.000000 -0.425100 -0.905200
vn 0.000000 -0.535100 -0.844800
vn 0.000000 -0.636700 -0.771100
vn 0.000000 -0.728300 -0.685300
vn 0.000000 -0.808500 -0.588500
vn 0.000000 -0.875900 -0.482500
vn 0.000000 -0.929500 -0.368800
vn 0.000000 -0.968500 -0.249200
vn 0.000000 -0.992100 -0.125600
vn 0.000000 -1.000000 0.000000
vn 0.000000 -0.992100 0.125600
vn 0.000000 -0.968500 0.249200
vn 0.000000 -0.929500 0.368800
vn 0.000000 -0.875900 0.482500
vn 0.000000 -0.808500 0.588500
vn 0.000000 -0.728300 0.685300
vn 0.000000 -0.636700 0.771100
vn 0.000000 -0.535100 0.844800
vn 0.000000 -0.425100 0.905200
vn -0.000000 -0.308500 0.951200
vn -0.000000 -0.187000 0.982400
vn 0.000000 -0.062700 0.998000
vn -0.000000 0.062700 0.998000
vn 0.000000 0.187000 0.982400
vn 0.000000 0.308500 0.951200
vn 0.000000 0.425100 0.905200
vn 0.000000 0.535100 0.844800
vn 0.000000 0.636700 0.771100
vn 0.000000 0.728300 0.685300
vn 0.000000 0.808500 0.588500
vn 0.000000 0.875900 0.482500
vn 0.000000 0.929500 0.368800
vn 0.000000 0.968500 0.249200
vn 0.000000 0.992100 0.125600
vn 0.000000 1.000000 -0.000000
vn 0.000000 0.992100 -0.125600
vn 0.000000 0.968500 -0.249200
vn 0.000000 0.929500 -0.368800
vn 0.000000 0.875900 -0.482500
vn 0.000000 0.808500 -0.588500
vn 0.000000 0.728300 -0.685300
vn 0.000000 0.636700 -0.771100
vn 0.000000 0.535100 -0.844800
vn 0.000000 0.425100 -0.905200
vn 0.000000 0.308500 -0.951200
vn 1.000000 0.000000 0.000000
vn 0.000000 0.062700 -0.998000
vn -0.000000 0.187000 -0.982400
vn -1.000000 0.000000 0.000000
vn 0.000000 0.968500 0.249100
s off
f 2/1/1 4/2/1 3/3/1
f 4/1/2 6/2/2 5/3/2
f 5/4/3 6/1/3 8/2/3
f 8/1/4 10/2/4 9/3/4
f 10/1/5 12/2/5 11/3/5
f 12/1/6 14/2/6 13/3/6
f 14/1/7 16/2/7 15/3/7
f 16/1/8 18/2/8 17/3/8
f 18/1/9 20/2/9 19/3/9
f 20/1/10 22/2/10 21/3/10
f 22/1/11 24/2/11 23/3/11
f 24/1/12 26/2/12 25/3/12
f 26/1/13 28/2/13 27/3/13
f 28/1/14 30/2/14 29/3/14
f 30/1/15 32/2/15 31/3/15
f 32/1/16 34/2/16 33/3/16
f 34/1/17 36/2/17 35/3/17
f 36/1/18 38/2/18 37/3/18
f 38/1/19 40/2/19 39/3/19
f 40/1/20 42/2/20 41/3/20
f 42/1/21 44/2/21 43/3/21
f 44/1/22 46/2/22 45/3/22
f 46/1/23 48/2/23 47/3/23
f 48/1/24 50/2/24 49/3/24
f 50/1/25 52/2/25 51/3/25
f 52/1/26 54/2/26 53/3/26
f 54/1/27 56/2/27 55/3/27
f 56/1/28 58/2/28 57/3/28
f 58/1/29 60/2/29 59/3/29
f 60/1/30 62/2/30 61/3/30
f 62/1/31 64/2/31 63/3/31
f 64/1/32 66/2/32 65/3/32
f 66/1/33 68/2/33 67/3/33
f 68/1/34 70/2/34 69/3/34
f 70/1/35 72/2/35 71/3/35
f 72/1/36 74/2/36 73/3/36
f 74/1/37 76/2/37 75/3/37
f 76/1/38 78/2/38 77/3/38
f 78/1/39 80/2/39 79/3/39
f 80/1/40 82/2/40 81/3/40
f 82/1/41 84/2/41 83/3/41
f 84/1/42 86/2/42 85/3/42
f 86/1/43 88/2/43 87/3/43
f 88/1/44 90/2/44 89/3/44
f 90/1/45 92/2/45 91/3/45
f 92/1/46 94/2/46 93/3/46
f 94/1/47 96/2/47 95/3/47
f 96/1/48 98/2/48 97/3/48
f 52/5/49 2/6/49 100/7/49
f 100/1/50 2/2/50 1/3/50
f 98/1/51 100/2/51 99/3/51
f 53/5/52 1/8/52 51/9/52
f 1/4/1 2/1/1 3/3/1
f 3/4/2 4/1/2 5/3/2
f 7/3/3 5/4/3 8/2/3
f 7/4/4 8/1/4 9/3/4
f 9/4/5 10/1/5 11/3/5
f 11/4/6 12/1/6 13/3/6
f 13/4/7 14/1/7 15/3/7
f 15/4/8 16/1/8 17/3/8
f 17/4/9 18/1/9 19/3/9
f 19/4/10 20/1/10 21/3/10
f 21/4/11 22/1/11 23/3/11
f 23/4/12 24/1/12 25/3/12
f 25/4/13 26/1/13 27/3/13
f 27/4/14 28/1/14 29/3/14
f 29/4/15 30/1/15 31/3/15
f 31/4/16 32/1/16 33/3/16
f 33/4/17 34/1/17 35/3/17
f 35/4/18 36/1/18 37/3/18
f 37/4/19 38/1/19 39/3/19
f 39/4/20 40/1/20 41/3/20
f 41/4/21 42/1/21 43/3/21
f 43/4/22 44/1/22 45/3/22
f 45/4/23 46/1/23 47/3/23
f 47/4/24 48/1/24 49/3/24
f 49/4/25 50/1/25 51/3/25
f 51/4/26 52/1/26 53/3/26
f 53/4/27 54/1/27 55/3/27
f 55/4/28 56/1/28 57/3/28
f 57/4/29 58/1/29 59/3/29
f 59/4/30 60/1/30 61/3/30
f 61/4/31 62/1/31 63/3/31
f 63/4/32 64/1/32 65/3/32
f 65/4/33 66/1/33 67/3/33
f 67/4/34 68/1/34 69/3/34
f 69/4/35 70/1/35 71/3/35
f 71/4/53 72/1/53 73/3/53
f 73/4/37 74/1/37 75/3/37
f 75/4/38 76/1/38 77/3/38
f 77/4/39 78/1/39 79/3/39
f 79/4/40 80/1/40 81/3/40
f 81/4/41 82/1/41 83/3/41
f 83/4/42 84/1/42 85/3/42
f 85/4/43 86/1/43 87/3/43
f 87/4/44 88/1/44 89/3/44
f 89/4/45 90/1/45 91/3/45
f 91/4/46 92/1/46 93/3/46
f 93/4/47 94/1/47 95/3/47
f 95/4/48 96/1/48 97/3/48
f 6/10/49 4/8/49 50/11/49
f 2/6/49 52/5/49 50/11/49
f 98/12/49 96/13/49 58/14/49
f 94/15/49 92/16/49 62/17/49
f 90/18/49 88/19/49 66/20/49
f 86/21/49 84/22/49 68/23/49
f 82/24/49 80/25/49 74/26/49
f 78/27/49 76/28/49 74/26/49
f 74/26/49 72/29/49 82/24/49
f 70/30/49 84/22/49 82/24/49
f 66/20/49 64/31/49 90/18/49
f 62/17/49 60/32/49 94/15/49
f 58/14/49 56/33/49 98/12/49
f 54/9/49 100/7/49 98/12/49
f 50/11/49 48/34/49 6/10/49
f 46/35/49 44/36/49 10/37/49
f 42/38/49 12/39/49 10/37/49
f 38/40/49 16/41/49 14/42/49
f 34/43/49 32/44/49 22/45/49
f 30/46/49 28/47/49 26/48/49
f 26/48/49 24/49/49 30/46/49
f 22/45/49 20/50/49 34/43/49
f 18/51/49 36/52/49 34/43/49
f 14/42/49 40/53/49 38/40/49
f 10/37/49 8/54/49 46/35/49
f 4/8/49 2/6/49 50/11/49
f 96/13/49 94/15/49 60/32/49
f 88/19/49 86/21/49 66/20/49
f 80/25/49 78/27/49 74/26/49
f 72/29/49 70/30/49 82/24/49
f 64/31/49 62/17/49 92/16/49
f 56/33/49 54/9/49 98/12/49
f 48/34/49 46/35/49 8/54/49
f 40/53/49 12/39/49 42/38/49
f 32/44/49 30/46/49 22/45/49
f 24/49/49 22/45/49 30/46/49
f 16/41/49 36/52/49 18/51/49
f 8/54/49 6/10/49 48/34/49
f 92/16/49 90/18/49 64/31/49
f 70/30/49 68/23/49 84/22/49
f 60/32/49 58/14/49 96/13/49
f 44/36/49 42/38/49 10/37/49
f 34/43/49 20/50/49 18/51/49
f 38/40/49 36/52/49 16/41/49
f 86/21/49 68/23/49 66/20/49
f 52/5/49 100/7/49 54/9/49
f 12/39/49 40/53/49 14/42/49
f 99/4/50 100/1/50 1/3/50
f 97/4/51 98/1/51 99/3/51
f 99/10/52 53/5/52 55/11/52
f 3/6/52 49/33/52 51/9/52
f 7/12/52 9/13/52 43/17/52
f 11/15/52 13/16/52 39/20/52
f 15/18/52 17/19/52 35/30/52
f 19/21/52 21/22/52 33/29/52
f 23/24/52 25/25/52 27/27/52
f 27/27/52 29/28/52 23/24/52
f 31/26/52 21/22/52 23/24/52
f 35/30/52 37/23/52 15/18/52
f 39/20/52 41/31/52 11/15/52
f 43/17/52 45/32/52 7/12/52
f 47/14/52 5/7/52 7/12/52
f 51/9/52 1/8/52 3/6/52
f 55/11/52 57/34/52 95/37/52
f 59/35/52 61/36/52 91/42/52
f 63/38/52 65/53/52 87/51/52
f 67/40/52 69/52/52 85/50/52
f 71/43/52 73/44/52 79/48/52
f 75/46/52 77/47/52 79/48/52
f 79/48/52 81/49/52 71/43/52
f 83/45/52 69/52/52 71/43/52
f 87/51/52 89/41/52 63/38/52
f 91/42/52 93/39/52 59/35/52
f 95/37/52 97/54/52 55/11/52
f 1/8/52 53/5/52 99/10/52
f 9/13/52 11/15/52 41/31/52
f 17/19/52 19/21/52 35/30/52
f 23/24/52 29/28/52 31/26/52
f 33/29/52 21/22/52 31/26/52
f 41/31/52 43/17/52 9/13/52
f 49/33/52 5/7/52 47/14/52
f 57/34/52 59/35/52 93/39/52
f 65/53/52 67/40/52 87/51/52
f 73/44/52 75/46/52 79/48/52
f 81/49/52 83/45/52 71/43/52
f 89/41/52 91/42/52 61/36/52
f 97/54/52 99/10/52 55/11/52
f 13/16/52 15/18/52 39/20/52
f 33/29/52 35/30/52 19/21/52
f 45/32/52 47/14/52 7/12/52
f 61/36/52 63/38/52 89/41/52
f 83/45/52 85/50/52 69/52/52
f 93/39/52 95/37/52 57/34/52
f 15/18/52 37/23/52 39/20/52
f 3/6/52 5/7/52 49/33/52
f 85/50/52 87/51/52 67/40/52
