# Blender v2.77 (sub 0) OBJ File: 'trafficcone.blend'
# www.blender.org
mtllib trafficconewithstick.mtl
o Cylinder
v 0.000000 0.220660 -0.012500
v 0.000000 1.220660 -0.012500
v 0.002439 0.220660 -0.012260
v 0.002439 1.220660 -0.012260
v 0.004784 0.220660 -0.011548
v 0.004784 1.220660 -0.011548
v 0.006945 0.220660 -0.010393
v 0.006945 1.220660 -0.010393
v 0.008839 0.220660 -0.008839
v 0.008839 1.220660 -0.008839
v 0.010393 0.220660 -0.006945
v 0.010393 1.220660 -0.006945
v 0.011548 0.220660 -0.004784
v 0.011548 1.220660 -0.004784
v 0.012260 0.220660 -0.002439
v 0.012260 1.220660 -0.002439
v 0.012500 0.220660 -0.000000
v 0.012500 1.220660 -0.000000
v 0.012260 0.220660 0.002439
v 0.012260 1.220660 0.002439
v 0.011548 0.220660 0.004784
v 0.011548 1.220660 0.004784
v 0.010393 0.220660 0.006945
v 0.010393 1.220660 0.006945
v 0.008839 0.220660 0.008839
v 0.008839 1.220660 0.008839
v 0.006945 0.220660 0.010393
v 0.006945 1.220660 0.010393
v 0.004784 0.220660 0.011548
v 0.004784 1.220660 0.011548
v 0.002439 0.220660 0.012260
v 0.002439 1.220660 0.012260
v -0.000000 0.220660 0.012500
v -0.000000 1.220660 0.012500
v -0.002439 0.220660 0.012260
v -0.002439 1.220660 0.012260
v -0.004784 0.220660 0.011548
v -0.004784 1.220660 0.011548
v -0.006945 0.220660 0.010393
v -0.006945 1.220660 0.010393
v -0.008839 0.220660 0.008839
v -0.008839 1.220660 0.008839
v -0.010393 0.220660 0.006945
v -0.010393 1.220660 0.006945
v -0.011548 0.220660 0.004784
v -0.011548 1.220660 0.004784
v -0.012260 0.220660 0.002439
v -0.012260 1.220660 0.002439
v -0.012500 0.220660 -0.000000
v -0.012500 1.220660 -0.000000
v -0.012260 0.220660 -0.002439
v -0.012260 1.220660 -0.002439
v -0.011548 0.220660 -0.004784
v -0.011548 1.220660 -0.004784
v -0.010393 0.220660 -0.006945
v -0.010393 1.220660 -0.006945
v -0.008839 0.220660 -0.008839
v -0.008839 1.220660 -0.008839
v -0.006945 0.220660 -0.010393
v -0.006945 1.220660 -0.010393
v -0.004784 0.220660 -0.011549
v -0.004784 1.220660 -0.011549
v -0.002439 0.220660 -0.012260
v -0.002439 1.220660 -0.012260
vn 0.0980 0.0000 -0.9952
vn 0.2903 0.0000 -0.9569
vn 0.4714 0.0000 -0.8819
vn 0.6344 0.0000 -0.7730
vn 0.7730 0.0000 -0.6344
vn 0.8819 0.0000 -0.4714
vn 0.9569 0.0000 -0.2903
vn 0.9952 0.0000 -0.0980
vn 0.9952 0.0000 0.0980
vn 0.9569 0.0000 0.2903
vn 0.8819 0.0000 0.4714
vn 0.7730 0.0000 0.6344
vn 0.6344 0.0000 0.7730
vn 0.4714 0.0000 0.8819
vn 0.2903 0.0000 0.9569
vn 0.0980 0.0000 0.9952
vn -0.0980 0.0000 0.9952
vn -0.2903 0.0000 0.9569
vn -0.4714 0.0000 0.8819
vn -0.6344 0.0000 0.7730
vn -0.7730 0.0000 0.6344
vn -0.8819 0.0000 0.4714
vn -0.9569 0.0000 0.2903
vn -0.9952 0.0000 0.0980
vn -0.9952 0.0000 -0.0980
vn -0.9569 0.0000 -0.2903
vn -0.8819 0.0000 -0.4714
vn -0.7730 0.0000 -0.6344
vn -0.6344 0.0000 -0.7730
vn -0.4714 0.0000 -0.8819
vn 0.0000 1.0000 -0.0000
vn -0.2903 0.0000 -0.9569
vn -0.0980 0.0000 -0.9952
vn 0.0000 -1.0000 0.0000
usemtl Material.002
s off
f 1//1 2//1 4//1 3//1
f 3//2 4//2 6//2 5//2
f 5//3 6//3 8//3 7//3
f 7//4 8//4 10//4 9//4
f 9//5 10//5 12//5 11//5
f 11//6 12//6 14//6 13//6
f 13//7 14//7 16//7 15//7
f 15//8 16//8 18//8 17//8
f 17//9 18//9 20//9 19//9
f 19//10 20//10 22//10 21//10
f 21//11 22//11 24//11 23//11
f 23//12 24//12 26//12 25//12
f 25//13 26//13 28//13 27//13
f 27//14 28//14 30//14 29//14
f 29//15 30//15 32//15 31//15
f 31//16 32//16 34//16 33//16
f 33//17 34//17 36//17 35//17
f 35//18 36//18 38//18 37//18
f 37//19 38//19 40//19 39//19
f 39//20 40//20 42//20 41//20
f 41//21 42//21 44//21 43//21
f 43//22 44//22 46//22 45//22
f 45//23 46//23 48//23 47//23
f 47//24 48//24 50//24 49//24
f 49//25 50//25 52//25 51//25
f 51//26 52//26 54//26 53//26
f 53//27 54//27 56//27 55//27
f 55//28 56//28 58//28 57//28
f 57//29 58//29 60//29 59//29
f 59//30 60//30 62//30 61//30
f 4//31 2//31 64//31 62//31 60//31 58//31 56//31 54//31 52//31 50//31 48//31 46//31 44//31 42//31 40//31 38//31 36//31 34//31 32//31 30//31 28//31 26//31 24//31 22//31 20//31 18//31 16//31 14//31 12//31 10//31 8//31 6//31
f 61//32 62//32 64//32 63//32
f 63//33 64//33 2//33 1//33
f 1//34 3//34 5//34 7//34 9//34 11//34 13//34 15//34 17//34 19//34 21//34 23//34 25//34 27//34 29//34 31//34 33//34 35//34 37//34 39//34 41//34 43//34 45//34 47//34 49//34 51//34 53//34 55//34 57//34 59//34 61//34 63//34
o Cone
v -0.200000 -0.246201 0.200000
v -0.200000 -0.226201 0.200000
v -0.200000 -0.246201 -0.200000
v -0.200000 -0.226201 -0.200000
v 0.200000 -0.246201 0.200000
v 0.200000 -0.226201 0.200000
v 0.200000 -0.246201 -0.200000
v 0.200000 -0.226201 -0.200000
v 0.012430 0.258063 -0.030008
v 0.006337 0.258063 -0.031857
v -0.000000 0.258063 -0.032481
v -0.006337 0.258063 -0.031857
v -0.012430 0.258063 -0.030008
v -0.018045 0.258063 -0.027007
v -0.022967 0.258063 -0.022967
v -0.027007 0.258063 -0.018045
v -0.030008 0.258063 -0.012430
v -0.031857 0.258063 -0.006337
v -0.032481 0.258063 -0.000000
v -0.031857 0.258063 0.006337
v -0.030008 0.258063 0.012430
v -0.027007 0.258063 0.018045
v -0.022967 0.258063 0.022967
v -0.018045 0.258063 0.027007
v -0.012430 0.258063 0.030008
v -0.006337 0.258063 0.031857
v -0.000000 0.258063 0.032481
v 0.006337 0.258063 0.031857
v 0.012430 0.258063 0.030008
v 0.018045 0.258063 0.027007
v 0.022967 0.258063 0.022967
v 0.027007 0.258063 0.018045
v 0.030008 0.258063 0.012430
v 0.031857 0.258063 0.006337
v 0.032481 0.258063 0.000000
v 0.031857 0.258063 -0.006337
v 0.030008 0.258063 -0.012430
v 0.027007 0.258063 -0.018045
v 0.022967 0.258063 -0.022967
v 0.018045 0.258063 -0.027007
v 0.000000 -0.244937 -0.161371
v -0.000000 -0.222621 -0.172500
v 0.033653 -0.222621 -0.169185
v 0.031482 -0.244937 -0.158270
v 0.066013 -0.222621 -0.159369
v 0.061754 -0.244937 -0.149087
v 0.095836 -0.222621 -0.143429
v 0.089653 -0.244937 -0.134175
v 0.121976 -0.222621 -0.121976
v 0.114106 -0.244937 -0.114106
v 0.143429 -0.222621 -0.095836
v 0.134175 -0.244937 -0.089653
v 0.159369 -0.222621 -0.066013
v 0.149087 -0.244937 -0.061754
v 0.169185 -0.222621 -0.033653
v 0.158270 -0.244937 -0.031482
v 0.172500 -0.222621 -0.000000
v 0.161371 -0.244937 -0.000000
v 0.169185 -0.222621 0.033653
v 0.158270 -0.244937 0.031482
v 0.159369 -0.222621 0.066013
v 0.149087 -0.244937 0.061754
v 0.143429 -0.222621 0.095836
v 0.134175 -0.244937 0.089653
v 0.121976 -0.222621 0.121976
v 0.114106 -0.244937 0.114106
v 0.095836 -0.222621 0.143429
v 0.089653 -0.244937 0.134175
v 0.066013 -0.222621 0.159369
v 0.061754 -0.244937 0.149087
v 0.033653 -0.222621 0.169185
v 0.031482 -0.244937 0.158270
v -0.000000 -0.222621 0.172500
v -0.000000 -0.244937 0.161371
v -0.033653 -0.222621 0.169185
v -0.031482 -0.244937 0.158270
v -0.066013 -0.222621 0.159369
v -0.061754 -0.244937 0.149087
v -0.095836 -0.222621 0.143428
v -0.089653 -0.244937 0.134175
v -0.121976 -0.222621 0.121976
v -0.114106 -0.244937 0.114106
v -0.143429 -0.222621 0.095836
v -0.134175 -0.244937 0.089653
v -0.159369 -0.222621 0.066013
v -0.149087 -0.244937 0.061754
v -0.169185 -0.222621 0.033653
v -0.158270 -0.244937 0.031482
v -0.172500 -0.222621 -0.000000
v -0.161371 -0.244937 -0.000000
v -0.169185 -0.222621 -0.033653
v -0.158270 -0.244937 -0.031482
v -0.159369 -0.222621 -0.066013
v -0.149087 -0.244937 -0.061754
v -0.143428 -0.222621 -0.095836
v -0.134175 -0.244937 -0.089653
v -0.121976 -0.222621 -0.121976
v -0.114106 -0.244937 -0.114106
v -0.095836 -0.222621 -0.143429
v -0.089653 -0.244937 -0.134175
v -0.066013 -0.222621 -0.159369
v -0.061754 -0.244937 -0.149087
v -0.033653 -0.222621 -0.169186
v -0.031482 -0.244937 -0.158270
vn 0.0000 -0.0875 -0.9962
vn 0.0000 0.7821 -0.6231
vn 0.1216 0.7821 -0.6111
vn 0.1943 -0.0875 -0.9770
vn 0.2384 0.7821 -0.5756
vn 0.3812 -0.0875 -0.9203
vn 0.5534 -0.0875 -0.8283
vn 0.3461 0.7821 -0.5181
vn 0.4406 0.7821 -0.4406
vn 0.7044 -0.0875 -0.7044
vn 0.5181 0.7821 -0.3461
vn 0.8283 -0.0875 -0.5534
vn 0.5756 0.7821 -0.2384
vn 0.9203 -0.0875 -0.3812
vn 0.6111 0.7821 -0.1216
vn 0.9770 -0.0875 -0.1943
vn -0.9203 -0.0875 -0.3812
vn -0.5756 0.7821 -0.2384
vn -0.5181 0.7821 -0.3461
vn -0.8283 -0.0875 -0.5534
vn 0.6231 0.7821 0.0000
vn 0.9962 -0.0875 0.0000
vn 0.9770 -0.0875 0.1943
vn 0.6111 0.7821 0.1216
vn 0.5756 0.7821 0.2384
vn 0.9203 -0.0875 0.3812
vn 0.5181 0.7821 0.3461
vn 0.8283 -0.0875 0.5534
vn 0.4406 0.7821 0.4406
vn 0.7044 -0.0875 0.7044
vn 0.3461 0.7821 0.5181
vn 0.5534 -0.0875 0.8283
vn 0.2384 0.7821 0.5756
vn 0.3812 -0.0875 0.9203
vn 0.1216 0.7821 0.6111
vn 0.1943 -0.0875 0.9770
vn 0.0000 0.7821 0.6231
vn 0.0000 -0.0875 0.9962
vn -0.1216 0.7821 0.6111
vn -0.1943 -0.0875 0.9770
vn -0.2384 0.7821 0.5756
vn -0.3812 -0.0875 0.9203
vn -0.3461 0.7821 0.5181
vn -0.5534 -0.0875 0.8283
vn -0.4406 0.7821 0.4406
vn -0.7044 -0.0875 0.7044
vn -0.5181 0.7821 0.3461
vn -0.8283 -0.0875 0.5534
vn -0.5756 0.7821 0.2384
vn -0.9203 -0.0875 0.3812
vn -0.6111 0.7821 0.1216
vn -0.9770 -0.0875 0.1943
vn -0.6231 0.7821 0.0000
vn -0.9962 -0.0875 0.0000
vn -0.6111 0.7821 -0.1216
vn -0.9770 -0.0875 -0.1943
vn -0.4406 0.7821 -0.4406
vn -0.7044 -0.0875 -0.7044
vn -0.3461 0.7821 -0.5181
vn -0.5534 -0.0875 -0.8283
vn -0.2384 0.7821 -0.5756
vn -0.3812 -0.0875 -0.9203
vn -0.1216 0.7821 -0.6111
vn -0.1943 -0.0875 -0.9770
vn 0.1071 -0.8357 -0.5386
vn 0.0000 -0.8357 -0.5491
vn 0.2101 -0.8357 -0.5073
vn 0.3051 -0.8357 -0.4566
vn 0.3883 -0.8357 -0.3883
vn 0.4566 -0.8357 -0.3051
vn 0.5073 -0.8357 -0.2101
vn 0.5386 -0.8357 -0.1071
vn 0.5491 -0.8357 0.0000
vn 0.5386 -0.8357 0.1071
vn 0.5073 -0.8357 0.2101
vn 0.4566 -0.8357 0.3051
vn 0.3883 -0.8357 0.3883
vn 0.3051 -0.8357 0.4566
vn 0.2101 -0.8357 0.5073
vn 0.1071 -0.8357 0.5386
vn 0.0000 -0.8357 0.5491
vn -0.1071 -0.8357 0.5386
vn -0.2101 -0.8357 0.5073
vn -0.3051 -0.8357 0.4566
vn -0.3883 -0.8357 0.3883
vn -0.4566 -0.8357 0.3051
vn -0.5073 -0.8357 0.2101
vn -0.5386 -0.8357 0.1071
vn -0.5491 -0.8357 0.0000
vn -0.5386 -0.8357 -0.1071
vn -0.5073 -0.8357 -0.2101
vn -0.4566 -0.8357 -0.3051
vn -0.3883 -0.8357 -0.3883
vn -0.3051 -0.8357 -0.4566
vn -0.2101 -0.8357 -0.5073
vn -0.1071 -0.8357 -0.5386
vn -1.0000 0.0000 0.0000
vn 0.0000 0.0000 -1.0000
vn 1.0000 0.0000 0.0000
vn 0.0000 0.0000 1.0000
vn 0.0000 -1.0000 0.0000
vn 0.0000 1.0000 0.0000
usemtl Material
s 1
f 106//35 75//36 74//37 107//38
f 107//38 74//37 73//39 109//40
f 111//41 104//42 103//43 113//44
f 113//44 103//43 102//45 115//46
f 115//46 102//45 101//47 117//48
f 117//48 101//47 100//49 119//50
f 157//51 81//52 80//53 159//54
f 119//50 100//49 99//55 121//56
f 123//57 98//58 97//59 125//60
f 125//60 97//59 96//61 127//62
f 127//62 96//61 95//63 129//64
f 129//64 95//63 94//65 131//66
f 131//66 94//65 93//67 133//68
f 133//68 93//67 92//69 135//70
f 135//70 92//69 91//71 137//72
f 137//72 91//71 90//73 139//74
f 139//74 90//73 89//75 141//76
f 141//76 89//75 88//77 143//78
f 143//78 88//77 87//79 145//80
f 145//80 87//79 86//81 147//82
f 147//82 86//81 85//83 149//84
f 149//84 85//83 84//85 151//86
f 151//86 84//85 83//87 153//88
f 153//88 83//87 82//89 155//90
f 155//90 82//89 81//52 157//51
f 121//56 99//55 98//58 123//57
f 159//54 80//53 79//91 161//92
f 161//92 79//91 78//93 163//94
f 163//94 78//93 77//95 165//96
f 165//96 77//95 76//97 167//98
f 167//98 76//97 75//36 106//35
f 73//39 74//37 75//36 76//97 77//95 78//93 79//91 80//53 81//52 82//89 83//87 84//85 85//83 86//81 87//79 88//77 89//75 90//73 91//71 92//69 93//67 94//65 95//63 96//61 97//59 98//58 99//55 100//49 101//47 102//45 103//43 104//42
f 109//40 73//39 104//42 111//41
f 106//35 107//38 108//99 105//100
f 107//38 109//40 110//101 108//99
f 109//40 111//41 112//102 110//101
f 111//41 113//44 114//103 112//102
f 113//44 115//46 116//104 114//103
f 115//46 117//48 118//105 116//104
f 117//48 119//50 120//106 118//105
f 119//50 121//56 122//107 120//106
f 121//56 123//57 124//108 122//107
f 123//57 125//60 126//109 124//108
f 125//60 127//62 128//110 126//109
f 127//62 129//64 130//111 128//110
f 129//64 131//66 132//112 130//111
f 131//66 133//68 134//113 132//112
f 133//68 135//70 136//114 134//113
f 135//70 137//72 138//115 136//114
f 137//72 139//74 140//116 138//115
f 139//74 141//76 142//117 140//116
f 141//76 143//78 144//118 142//117
f 143//78 145//80 146//119 144//118
f 145//80 147//82 148//120 146//119
f 147//82 149//84 150//121 148//120
f 149//84 151//86 152//122 150//121
f 151//86 153//88 154//123 152//122
f 153//88 155//90 156//124 154//123
f 155//90 157//51 158//125 156//124
f 157//51 159//54 160//126 158//125
f 159//54 161//92 162//127 160//126
f 161//92 163//94 164//128 162//127
f 163//94 165//96 166//129 164//128
f 165//96 167//98 168//130 166//129
f 167//98 106//35 105//100 168//130
f 105//100 108//99 110//101 112//102 114//103 116//104 118//105 120//106 122//107 124//108 126//109 128//110 130//111 132//112 134//113 136//114 138//115 140//116 142//117 144//118 146//119 148//120 150//121 152//122 154//123 156//124 158//125 160//126 162//127 164//128 166//129 168//130
usemtl Material.001
s off
f 66//131 68//131 67//131 65//131
f 68//132 72//132 71//132 67//132
f 72//133 70//133 69//133 71//133
f 70//134 66//134 65//134 69//134
f 65//135 67//135 71//135 69//135
f 70//136 72//136 68//136 66//136
