# Blender v2.76 (sub 0) OBJ File: ''
# www.blender.org
o Cube
v 9.499995 0.000000 -1.374999
v 9.499995 0.000000 1.374999
v -9.499996 0.000000 1.374999
v -9.499991 0.000000 -1.375000
v 9.500000 4.095000 -1.374999
v 9.499989 4.095000 1.375000
v -9.499999 4.095000 1.374999
v -9.499994 4.095000 -1.374999
vt 1.000000 0.000000
vt 1.000000 1.000000
vt 0.000000 1.000000
vt 0.000000 0.000000
vn 0.000000 -1.000000 0.000000
vn 0.000000 1.000000 0.000000
vn 1.000000 0.000000 0.000000
vn -0.000000 0.000000 1.000000
vn -1.000000 -0.000000 -0.000000
vn 0.000000 0.000000 -1.000000
s off
f 2/1/1 3/2/1 4/3/1
f 8/1/2 7/2/2 6/3/2
f 5/1/3 6/2/3 2/3/3
f 6/1/4 7/2/4 3/3/4
f 7/1/5 8/2/5 4/3/5
f 1/1/6 4/2/6 8/3/6
f 1/4/1 2/1/1 4/3/1
f 5/4/2 8/1/2 6/3/2
f 1/4/3 5/1/3 2/3/3
f 2/4/4 6/1/4 3/3/4
f 3/4/5 7/1/5 4/3/5
f 5/4/6 1/1/6 8/3/6
