# Blender v2.76 (sub 0) OBJ File: 'wall.blend'
# www.blender.org
o Cube
v 0.250000 0.000000 -2.499999
v 0.250000 0.000000 2.499999
v -0.250000 0.000000 2.499998
v -0.250000 0.000000 -2.500000
v 0.250000 3.000000 -2.499997
v 0.250000 3.000000 2.500000
v -0.250000 3.000000 2.499998
v -0.250000 3.000000 -2.499999
v 0.250000 0.000000 0.000000
v 0.250000 1.500000 -2.499998
v 0.250000 1.500000 2.499999
v 0.250000 3.000000 0.000001
v 0.250000 1.500000 0.000001
v -0.250000 0.000000 -0.000001
v -0.250000 1.500000 2.499998
v -0.250000 1.500000 -2.499999
v -0.250000 3.000000 -0.000000
v -0.250000 1.500000 -0.000001
vt 0.500000 0.000000
vt 0.500000 1.000000
vt 0.000000 0.000000
vt 1.000000 1.000000
vt 0.000000 1.000000
vt 0.000000 0.500000
vt 1.000000 0.000000
vt 1.000000 0.500000
vn 0.000000 -1.000000 0.000000
vn 0.000000 1.000000 0.000000
vn 1.000000 0.000000 0.000000
vn -0.000000 -0.000000 1.000000
vn -1.000000 0.000000 -0.000000
vn 0.000000 0.000000 -1.000000
s off
f 9/1/1 14/2/1 1/3/1
f 7/4/2 6/5/2 12/6/2
f 12/7/3 6/4/3 11/5/3
f 11/1/4 15/2/4 3/5/4
f 18/3/5 17/7/5 8/4/5
f 10/1/6 4/4/6 16/2/6
f 13/7/3 11/4/3 2/5/3
f 10/7/3 13/4/3 9/5/3
f 5/7/3 12/4/3 13/5/3
f 18/7/5 16/4/5 4/5/5
f 15/7/5 18/4/5 14/5/5
f 7/7/5 17/4/5 18/5/5
f 4/5/1 1/3/1 14/2/1
f 9/1/1 2/7/1 3/4/1
f 3/4/1 14/2/1 9/1/1
f 12/6/2 5/3/2 17/8/2
f 17/8/2 7/4/2 12/6/2
f 5/3/2 8/7/2 17/8/2
f 13/3/3 12/7/3 11/5/3
f 3/5/4 2/3/4 11/1/4
f 11/1/4 6/7/4 7/4/4
f 7/4/4 15/2/4 11/1/4
f 16/5/5 18/3/5 8/4/5
f 8/5/6 5/3/6 10/1/6
f 10/1/6 1/7/6 4/4/6
f 16/2/6 8/5/6 10/1/6
f 9/3/3 13/7/3 2/5/3
f 1/3/3 10/7/3 9/5/3
f 10/3/3 5/7/3 13/5/3
f 14/3/5 18/7/5 4/5/5
f 3/3/5 15/7/5 14/5/5
f 15/3/5 7/7/5 18/5/5
