# Blender v2.76 (sub 0) OBJ File: 'wall2.blend'
# www.blender.org
o Cube
v 0.250000 0.000000 -2.499999
v 0.250000 0.000000 2.499999
v -0.250000 0.000000 2.499998
v -0.250000 0.000000 -2.500000
v 0.250000 3.000000 -2.499997
v 0.250000 3.000000 2.500000
v -0.250000 3.000000 2.499998
v -0.250000 3.000000 -2.499999
vt 0.000000 0.000000
vt 1.000000 0.000000
vt 1.000000 1.000000
vt -2.200000 -2.200000
vt 3.200000 -2.200000
vt 3.200000 3.200000
vt -1.000000 -1.000000
vt 2.000000 -1.000000
vt 2.000000 2.000000
vt 0.000000 1.000000
vt -2.200000 3.200000
vt -1.000000 2.000000
vn 0.000000 -1.000000 0.000000
vn 0.000000 1.000000 0.000000
vn 1.000000 0.000000 0.000000
vn -0.000000 0.000000 1.000000
vn -1.000000 -0.000000 -0.000000
vn 0.000000 0.000000 -1.000000
s off
f 1/1/1 2/2/1 3/3/1
f 5/4/2 8/5/2 7/6/2
f 5/7/3 6/8/3 2/9/3
f 6/7/4 7/8/4 3/9/4
f 7/7/5 8/8/5 4/9/5
f 1/7/6 4/8/6 8/9/6
f 4/10/1 1/1/1 3/3/1
f 6/11/2 5/4/2 7/6/2
f 1/12/3 5/7/3 2/9/3
f 2/12/4 6/7/4 3/9/4
f 3/12/5 7/7/5 4/9/5
f 5/12/6 1/7/6 8/9/6
